<svg width="18" height="18" viewBox="0 0 18 18" fill="none" xmlns="http://www.w3.org/2000/svg">
<g id="Icon / Outlined / Eye hide">
<g id="Icon">
<path id="Vector" d="M6.95483 8.99701C6.95483 9.20701 6.9865 9.41051 7.04567 9.60117L9.60483 7.04267C9.4135 6.98301 9.21067 6.95117 9 6.95117C7.87033 6.95117 6.95483 7.86667 6.95483 8.99701Z" fill="black"/>
<path id="Vector_2" d="M8.99998 11.0424C10.1295 11.0424 11.0451 10.1257 11.0451 8.99674C11.0451 8.78541 11.0135 8.58308 10.9543 8.39258L8.39514 10.9511C8.58664 11.0097 8.78931 11.0424 8.99998 11.0424Z" fill="black"/>
<path id="Vector_3" d="M15.3295 3.05318L14.9439 2.66752C14.837 2.56135 14.6649 2.56135 14.5582 2.66752L2.67069 14.555C2.56452 14.6608 2.56452 14.8343 2.67069 14.9405L3.05636 15.326C3.16319 15.4322 3.33536 15.4322 3.44202 15.326L15.3295 3.43868C15.4355 3.33285 15.4355 3.15952 15.3295 3.05318Z" fill="black"/>
<path id="Vector_4" d="M4.51517 12.1323L6.0105 10.6368C5.74317 10.1511 5.59117 9.59178 5.59117 8.99744C5.59117 7.11394 7.1165 5.58794 9 5.58794C9.59433 5.58794 10.153 5.74061 10.6393 6.00794L11.7783 4.86911C10.9158 4.47961 9.97783 4.22461 9 4.22461C4.90883 4.22444 1.5 8.65694 1.5 8.99744C1.5 9.19894 2.69317 10.8321 4.51517 12.1323Z" fill="black"/>
<path id="Vector_5" d="M13.4855 5.86133L11.9895 7.35683C12.2568 7.8425 12.4088 8.40183 12.4088 8.99616C12.4088 10.8797 10.883 12.4057 9.00001 12.4057C8.40568 12.4057 7.84701 12.253 7.36068 11.9857L6.22168 13.1245C7.08418 13.5142 8.02218 13.769 9.00001 13.769C13.0905 13.769 16.5 9.33649 16.5 8.996C16.5 8.79466 15.3068 7.16149 13.4855 5.86133Z" fill="black"/>
</g>
</g>
</svg>
