<svg width="18" height="18" viewBox="0 0 18 18" fill="none" xmlns="http://www.w3.org/2000/svg">
<g id="Icon / Outlined / Password lock forgot">
<g id="Group 411">
<path id="lock" d="M4.90709 5.66627V7.53804C4.01031 7.58085 3.29995 8.34243 3.29995 9.28307V14.8281C3.29995 15.7903 4.05179 16.575 4.9868 16.575H13.0131C13.9471 16.575 14.6999 15.7964 14.6999 14.8281V9.28307C14.6999 8.3484 13.9905 7.58115 13.0928 7.53805V5.66627C13.0928 3.32643 11.2583 1.42503 8.99995 1.42503C6.73699 1.42503 4.90709 3.32602 4.90709 5.66627ZM5.59281 7.53614V5.66304C5.59281 3.71013 7.12072 2.13058 8.99995 2.13058C10.8753 2.13058 12.4071 3.70965 12.4071 5.66304V7.53614H12.0214V5.67173C12.0214 3.94265 10.6679 2.53614 8.99995 2.53614C7.32864 2.53614 5.97852 3.93983 5.97852 5.67173V7.53614H5.59281ZM6.66423 7.53614V5.66717C6.66423 4.32182 7.71247 3.24169 8.99995 3.24169C10.2847 3.24169 11.3357 4.32506 11.3357 5.66717V7.53614H6.66423ZM3.98566 9.28106C3.98566 8.70361 4.43398 8.24169 4.98071 8.24169H13.0192C13.5676 8.24169 14.0142 8.70405 14.0142 9.28106V14.8301C14.0142 15.4076 13.5659 15.8695 13.0192 15.8695H4.98071C4.43228 15.8695 3.98566 15.4071 3.98566 14.8301V9.28106Z" fill="white" stroke="white" stroke-width="0.15"/>
<path id="Vector" d="M8.34116 13.3711V13.2961C8.34116 13.1165 8.3473 12.9671 8.3599 12.8488L8.34116 13.3711ZM8.34116 13.3711H8.41616M8.34116 13.3711H8.41616M8.41616 13.3711H9.1376H9.2126V13.2961C9.2126 13.1489 9.21743 13.0326 9.22672 12.9462M8.41616 13.3711L9.1376 13.2961M10.0089 9.70353C9.72489 9.44038 9.33087 9.31367 8.83731 9.31367C8.53508 9.31367 8.26382 9.36912 8.02521 9.48201C7.78671 9.59484 7.59758 9.75494 7.46009 9.96249L7.46008 9.96248L7.45973 9.96303C7.32363 10.1724 7.25939 10.4158 7.26452 10.6901L7.26483 10.7071L7.27242 10.7223L7.28341 10.7442L7.30414 10.7857H7.35049H8.03897H8.11397V10.7107C8.11397 10.4942 8.18396 10.3414 8.31573 10.2389L8.31585 10.2388C8.45733 10.1283 8.62974 10.0716 8.83731 10.0716C9.08011 10.0716 9.25482 10.1372 9.37341 10.2579L9.37341 10.2579L9.37387 10.2584C9.49496 10.3794 9.56065 10.5568 9.56065 10.8022C9.56065 10.9261 9.54118 11.0476 9.5021 11.1671L9.50209 11.1671L9.50171 11.1684C9.4656 11.2857 9.40161 11.409 9.30766 11.5382L9.30765 11.5382L9.30713 11.5389C9.21612 11.6672 9.08606 11.8084 8.91526 11.9624L8.91525 11.9624L10.0089 9.70353ZM10.0089 9.70353C10.2936 9.96488 10.4321 10.3285 10.4321 10.7839C10.4321 11.0024 10.3952 11.2037 10.3204 11.387C10.2488 11.566 10.1409 11.7443 9.99808 11.9222L9.99776 11.9226C9.85671 12.0958 9.68049 12.2892 9.46949 12.5027M10.0089 9.70353L9.41592 12.4502M9.46949 12.5027C9.46941 12.5028 9.46934 12.5028 9.46926 12.5029L9.41592 12.4502M9.46949 12.5027C9.46956 12.5026 9.46962 12.5026 9.46969 12.5025L9.41592 12.4502M9.46949 12.5027C9.38696 12.5876 9.32988 12.6624 9.29533 12.7272L9.29483 12.7281L9.29482 12.7281C9.26104 12.7893 9.23794 12.8616 9.22672 12.9462M9.41592 12.4502C9.33047 12.5381 9.26822 12.6187 9.22916 12.6919C9.19009 12.7627 9.16445 12.8445 9.15225 12.9373M9.22672 12.9462C9.22675 12.9459 9.22678 12.9456 9.22682 12.9453L9.15225 12.9373M9.22672 12.9462C9.22668 12.9465 9.22665 12.9468 9.22661 12.947L9.15225 12.9373M9.15225 12.9373C9.14249 13.0276 9.1376 13.1472 9.1376 13.2961M9.1376 13.2961H9.0626H9.1376ZM8.43542 12.5298L8.43544 12.5298C8.47576 12.4384 8.53535 12.349 8.61261 12.2614L8.43542 12.5298ZM8.43542 12.5298L8.4347 12.5315M8.43542 12.5298L8.4347 12.5315M8.4347 12.5315C8.39717 12.6227 8.37265 12.7288 8.3599 12.8488L8.4347 12.5315ZM8.26968 10.1797C8.11587 10.2993 8.03897 10.4763 8.03897 10.7107H7.96397H7.35049L7.3395 10.6887C7.33462 10.4275 7.39566 10.1992 7.52261 10.0039C7.652 9.80859 7.83023 9.65723 8.05728 9.5498C8.28433 9.44238 8.54434 9.38867 8.83731 9.38867L8.26968 10.1797ZM8.33384 14.7976V14.8726H8.40884H9.15957H9.23457V14.7976V14.0359V13.9609H9.15957H8.40884H8.33384V14.0359V14.7976Z" fill="white" stroke="white" stroke-width="0.15"/>
</g>
</g>
</svg>
