<svg width="24" height="24" viewBox="0 0 24 24" fill="none" xmlns="http://www.w3.org/2000/svg">
<g id="Icon / Outlined / Password lock">
<path id="lock" fill-rule="evenodd" clip-rule="evenodd" d="M11.6429 16.0108V17.9326C11.6429 18.1335 11.8085 18.2963 12 18.2963C12.1972 18.2963 12.3571 18.1275 12.3571 17.9326V16.0108C12.7733 15.8583 13.0714 15.4467 13.0714 14.963C13.0714 14.3493 12.5917 13.8519 12 13.8519C11.4083 13.8519 10.9286 14.3493 10.9286 14.963C10.9286 15.4467 11.2267 15.8583 11.6429 16.0108ZM10.9286 16.4446V17.9247C10.9286 18.539 11.4041 19.037 12 19.037C12.5917 19.037 13.0714 18.5399 13.0714 17.9247V16.4446C13.5052 16.1067 13.7857 15.5688 13.7857 14.963C13.7857 13.9402 12.9862 13.1111 12 13.1111C11.0138 13.1111 10.2143 13.9402 10.2143 14.963C10.2143 15.5688 10.4948 16.1067 10.9286 16.4446ZM6.64286 10.1482V7.55499C6.64286 4.48645 9.04133 2 12 2C14.9526 2 17.3571 4.48705 17.3571 7.55499V10.1482C18.5422 10.1517 19.5 11.1484 19.5 12.3774V19.7708C19.5 21.0099 18.5378 22 17.3509 22H6.64913C5.46114 22 4.5 21.0019 4.5 19.7708V12.3774C4.5 11.1404 5.45881 10.1516 6.64286 10.1482ZM7.35714 10.1481V7.55069C7.35714 4.89494 9.43582 2.74074 12 2.74074C14.559 2.74074 16.6429 4.89423 16.6429 7.55069V10.1481H15.9286V7.56228C15.9286 5.30852 14.1653 3.48148 12 3.48148C9.83031 3.48148 8.07143 5.30474 8.07143 7.56228V10.1481H7.35714ZM8.78571 10.1481V7.55619C8.78571 5.71055 10.2248 4.22222 12 4.22222C13.7716 4.22222 15.2143 5.71489 15.2143 7.55619V10.1481H8.78571ZM6.64102 10.8889C5.85305 10.8889 5.21429 11.5534 5.21429 12.3747V19.7734C5.21429 20.594 5.85066 21.2593 6.64102 21.2593H17.359C18.1469 21.2593 18.7857 20.5948 18.7857 19.7734V12.3747C18.7857 11.5541 18.1493 10.8889 17.359 10.8889H6.64102Z" fill="#859198"/>
</g>
</svg>
